<svg id="레이어_2" data-name="레이어 2" xmlns="http://www.w3.org/2000/svg" viewBox="0 0 660.8 128.12"><defs><style>.cls-1{fill:#cb3b28;}</style></defs><path class="cls-1" d="M27.25,7.94a23.36,23.36,0,0,0-11.9,8.68,24.6,24.6,0,0,0-4.08,14.32,26.57,26.57,0,0,0,.8,6.72,14,14,0,0,0,2.31,5q-7.36,0-10.87-3C1.16,37.59,0,34.46,0,30.25a26.31,26.31,0,0,1,4.71-15A33.62,33.62,0,0,1,17.48,4.15,37.5,37.5,0,0,1,35,0a26.68,26.68,0,0,1,4.6.35A26.6,26.6,0,0,1,44,1.62l13.8,61.51L70.72.69H81.86l-18.74,86H47.26l-13.34-57-13.11,57H9.89Z"/><path class="cls-1" d="M79.46,82.79q-5-4.37-4.94-13.79a56.66,56.66,0,0,1,3.09-17.43A40.72,40.72,0,0,1,87.73,35.13q7-6.95,17.94-7,13.58,0,14.6,15.53a8.41,8.41,0,0,0,4.49-2.82,36,36,0,0,0,3.68-5.11h3.68a83,83,0,0,1-5.53,9.71,18.37,18.37,0,0,1-6.32,5.69,53.49,53.49,0,0,1-4.42,19,31.6,31.6,0,0,1-9.72,12.6,21.77,21.77,0,0,1-13.22,4.42Q84.41,87.16,79.46,82.79Zm26-12.88a50.7,50.7,0,0,0,5.06-17q-2.76-1-2.76-5.17c0-3,1.08-5,3.22-6a11,11,0,0,0-1.2-5.12,3.56,3.56,0,0,0-3.16-1.44q-3.81,0-7.25,5.46a48.94,48.94,0,0,0-5.58,13.22A52.39,52.39,0,0,0,91.64,67.5q0,5.52,1.27,7.42c.84,1.26,2.38,1.89,4.6,1.89C100.34,76.81,103,74.52,105.44,69.91Z"/><path class="cls-1" d="M138.33,84.52a8.79,8.79,0,0,1-2.65-6.44,9,9,0,0,1,2.65-6.5,8.69,8.69,0,0,1,6.44-2.7,9.24,9.24,0,0,1,9.2,9.2,8.66,8.66,0,0,1-2.71,6.44,9,9,0,0,1-6.49,2.64A8.78,8.78,0,0,1,138.33,84.52Z"/><path class="cls-1" d="M180,15H169l1.38-5.29a53.15,53.15,0,0,0,13.11-1.72Q190.3,6.2,199.62.69l-18.29,86H164.78Z"/><path class="cls-1" d="M253.28,84c-2.07-1.15-3.09-3.16-3.09-6a16.44,16.44,0,0,1,1.36-6.09,13.08,13.08,0,0,0,3.51,3,7.54,7.54,0,0,0,3.52.83q5.25,0,7.82-5.87a32.22,32.22,0,0,0,2.57-13q0-13.32-10-13.32a31.54,31.54,0,0,0-4.83.31l-8.61,40.2H230.45l14.28-66.76,15.53-2.1-4.93,23.3H256a12.31,12.31,0,0,0,7.45-2.56A19.32,19.32,0,0,0,269,29.27a16.65,16.65,0,0,0,2.1-7.92,10.73,10.73,0,0,0-3.41-8.09Q264.26,10,257.21,10a28.73,28.73,0,0,0-12.48,2.89,24.08,24.08,0,0,0-9.92,8.66,24.63,24.63,0,0,0-3.84,14,13.69,13.69,0,0,0,.74,5.4,10.26,10.26,0,0,1,.73,1.73q-5.55,0-8.39-2.25T221.21,33q0-7.14,5.36-13.54A38.43,38.43,0,0,1,240.74,9.12a45.13,45.13,0,0,1,18.57-3.94A29.5,29.5,0,0,1,271.7,7.5a17.3,17.3,0,0,1,7.51,6.08,15,15,0,0,1,2.46,8.29A17.92,17.92,0,0,1,279,31.22a20.86,20.86,0,0,1-7.77,7.35,13.38,13.38,0,0,1,9.33,5.82,19.8,19.8,0,0,1,3.05,11.07,42.68,42.68,0,0,1-2.26,13,29.14,29.14,0,0,1-7.45,12.12,18.18,18.18,0,0,1-13.27,5.09A14.76,14.76,0,0,1,253.28,84Z"/><path class="cls-1" d="M290.18,80.5q-4.31-4.05-4.3-12.65a51.85,51.85,0,0,1,2.83-15.95A37.13,37.13,0,0,1,298,36.83q6.41-6.34,16.27-6.35,11.53,0,11.54,10.08a18.86,18.86,0,0,1-3.35,10.81,24.82,24.82,0,0,1-8.93,7.92,28.72,28.72,0,0,1-11.85,3.41c-.15,2.11-.22,3.51-.22,4.2q0,5.14,1.78,7c1.2,1.22,3.11,1.84,5.78,1.84a17.37,17.37,0,0,0,9.71-2.63,46.47,46.47,0,0,0,8.87-8h3.57q-11.65,19.41-28.86,19.42Q294.48,84.54,290.18,80.5Zm19.69-25.56a19.23,19.23,0,0,0,5.66-6.41,16.64,16.64,0,0,0,2.15-8.18q0-4.31-2.62-4.3-3.8,0-7.4,6.6a50.37,50.37,0,0,0-5.2,15A14,14,0,0,0,309.87,54.94Z"/><path class="cls-1" d="M330.16,80.44q-4-4.08-4-12.8a48,48,0,0,1,3.09-16.32,37.62,37.62,0,0,1,9.23-14.49,20.39,20.39,0,0,1,14.65-5.93q4.31,0,6.4,1.47a4.54,4.54,0,0,1,2.1,3.89V37l1.16-5.56h15.12l-7.57,35.68a13,13,0,0,0-.42,3.36q0,4.52,4.31,4.51a6.29,6.29,0,0,0,5.08-2.72,20.47,20.47,0,0,0,3.42-7.14h4.41q-3.89,11.34-9.61,15.38a19.81,19.81,0,0,1-11.49,4A10,10,0,0,1,359,82.07a11,11,0,0,1-3.21-7.19,29.45,29.45,0,0,1-6.76,7,14.86,14.86,0,0,1-8.87,2.68A13.35,13.35,0,0,1,330.16,80.44Zm22-8.55a13,13,0,0,0,3.52-6.77l5-23.73a4.26,4.26,0,0,0-1-2.67,3.9,3.9,0,0,0-3.26-1.31q-4.2,0-7.55,4.88a38.18,38.18,0,0,0-5.25,11.76,46.43,46.43,0,0,0-1.89,12.12c0,3.49.5,5.74,1.52,6.72A5.18,5.18,0,0,0,347,74.35,7.54,7.54,0,0,0,352.15,71.89Z"/><path class="cls-1" d="M385,81.39c-2.07-2.1-3.09-5.25-3.09-9.45a36.22,36.22,0,0,1,.83-6.82l7.15-33.69H405l-7.55,35.68a15.09,15.09,0,0,0-.31,2.94c0,2.87,1,4.3,3.15,4.3a6.38,6.38,0,0,0,5-2.46,18.23,18.23,0,0,0,3.36-6.77l7.14-33.69h15.11l-7.55,35.68a13,13,0,0,0-.42,3.36,3.86,3.86,0,0,0,1,3,4.91,4.91,0,0,0,3.31.89,6.48,6.48,0,0,0,5.09-2.52,18.37,18.37,0,0,0,3.41-6.71h4.41q-3.89,11.34-9.6,15.38a19.86,19.86,0,0,1-11.5,4A10.07,10.07,0,0,1,411.88,82q-2.67-2.52-3.2-7.45-3.57,5.76-7.5,7.87a16.92,16.92,0,0,1-8,2.1A10.92,10.92,0,0,1,385,81.39Z"/><path class="cls-1" d="M438,81.39c-2.07-2.1-3.09-5.25-3.09-9.45a36.22,36.22,0,0,1,.83-6.82l6.3-29.49h-3.46l.84-4.2h3.46L446,16.94l15.53-2.1L458,31.43h6.31l-.85,4.2h-6.29l-6.72,31.48a13,13,0,0,0-.42,3.36,3.82,3.82,0,0,0,1,3,4.88,4.88,0,0,0,3.3.89A8,8,0,0,0,460,71.79a14.74,14.74,0,0,0,3.78-6.67h4.41q-3.88,11.34-10,15.38a21.77,21.77,0,0,1-12.07,4A10.92,10.92,0,0,1,438,81.39Z"/><path class="cls-1" d="M471.49,106.94a10.25,10.25,0,0,1-3.72-8.13,11.78,11.78,0,0,1,2.31-7.55,15.83,15.83,0,0,1,6-4.63,83.08,83.08,0,0,1,9.86-3.56L487,78.45a16.5,16.5,0,0,1-12.81,6.09A10.89,10.89,0,0,1,466,81.39q-3.1-3.15-3.1-9.45a36.36,36.36,0,0,1,.84-6.82l7.14-33.69H486l-7.56,35.68a11.34,11.34,0,0,0-.31,2.63c0,3.08,1,4.61,3.15,4.61a6.39,6.39,0,0,0,5-2.46,18.08,18.08,0,0,0,3.35-6.77l7.14-33.69h15.22l-12.8,60.88q-2.1,10.08-7.41,14a19.38,19.38,0,0,1-11.69,3.88A12.88,12.88,0,0,1,471.49,106.94Zm9.82-8.07a14.38,14.38,0,0,0,2.62-6.25l1.26-6.19a27.25,27.25,0,0,0-8.6,4.4,8.07,8.07,0,0,0-3,6.51,3.14,3.14,0,0,0,1.26,2.36,4.31,4.31,0,0,0,2.94,1.11A4.79,4.79,0,0,0,481.31,98.87Z"/><path class="cls-1" d="M537.1,81.39C535,79.29,534,76.14,534,71.94a35.54,35.54,0,0,1,.84-6.82l11.22-52.59,15.54-2.09L549.54,67.11a13,13,0,0,0-.42,3.36,3.86,3.86,0,0,0,1,3,4.88,4.88,0,0,0,3.3.89,8,8,0,0,0,5.68-2.56,14.82,14.82,0,0,0,3.77-6.67h4.41q-3.87,11.34-10,15.38a21.77,21.77,0,0,1-12.07,4A10.92,10.92,0,0,1,537.1,81.39Z"/><path class="cls-1" d="M565.49,80.44q-4-4.08-4-12.8a48,48,0,0,1,3.09-16.32,37.64,37.64,0,0,1,9.24-14.49,20.36,20.36,0,0,1,14.64-5.93q4.31,0,6.4,1.47A4.55,4.55,0,0,1,597,36.26V37l1.15-5.56h15.12L605.7,67.11a12.57,12.57,0,0,0-.43,3.36q0,4.52,4.32,4.51a6.32,6.32,0,0,0,5.08-2.72,20.47,20.47,0,0,0,3.41-7.14h4.42q-3.9,11.34-9.62,15.38a19.79,19.79,0,0,1-11.49,4,10,10,0,0,1-7.08-2.47,11,11,0,0,1-3.2-7.19,29.49,29.49,0,0,1-6.77,7,14.86,14.86,0,0,1-8.87,2.68A13.37,13.37,0,0,1,565.49,80.44Zm22-8.55A13,13,0,0,0,591,65.12l5-23.73a4.32,4.32,0,0,0-1-2.67,3.93,3.93,0,0,0-3.26-1.31q-4.2,0-7.56,4.88a38.66,38.66,0,0,0-5.25,11.76A46.43,46.43,0,0,0,577,66.17c0,3.49.51,5.74,1.52,6.72a5.21,5.21,0,0,0,3.73,1.46A7.56,7.56,0,0,0,587.49,71.89Z"/><path class="cls-1" d="M621.12,81q-3.76-3.51-3.77-9.92a23.78,23.78,0,0,1,.73-6l11.23-52.59,15.54-2.09-5,23.61a22.12,22.12,0,0,1,4.83-2.36,12.7,12.7,0,0,1,3.78-.57q12.38,0,12.38,17.94A48.6,48.6,0,0,1,658,64.54a33,33,0,0,1-9.24,14.12q-6.45,5.88-16.74,5.88Q624.9,84.54,621.12,81ZM644,70.31a32.34,32.34,0,0,0,4.52-10.07,43.2,43.2,0,0,0,1.68-11.6,15.89,15.89,0,0,0-1.47-7.13c-1-2-2.34-2.94-4.09-2.94a14.73,14.73,0,0,0-3.52.47,4.78,4.78,0,0,0-2.68,1.41l-5.77,26.66a10,10,0,0,0-.32,2.41c0,3.23,1.86,4.83,5.57,4.83C640.08,74.35,642.11,73,644,70.31Z"/><path class="cls-1" d="M237.94,104.77a4.48,4.48,0,0,0-2.34-.57,7.25,7.25,0,0,0-3.6,1,10.51,10.51,0,0,0-3.07,2.67,9.55,9.55,0,0,0-1.83,3.69,8.55,8.55,0,0,0-.19,3.91,4.6,4.6,0,0,0,1.53,2.7,4.47,4.47,0,0,0,3,1,6.48,6.48,0,0,0,2.16-.36,7.38,7.38,0,0,0,1.9-1,8.55,8.55,0,0,0,1.5-1.32,3.52,3.52,0,0,0,.82-1.36.61.61,0,0,0-.06-.51.45.45,0,0,0-.36-.15.62.62,0,0,0-.33.11,1.46,1.46,0,0,0-.25.21,7.53,7.53,0,0,1-1.66,1,4.54,4.54,0,0,1-1.76.36,3,3,0,0,1-2-.68,3.48,3.48,0,0,1-1.13-1.83,5.06,5.06,0,0,1,0-2.56,2.11,2.11,0,0,1,.38-.86.69.69,0,0,1,.53-.19h6.64a1.48,1.48,0,0,0,1.5-1.29,4.16,4.16,0,0,0,0-2.38A3.15,3.15,0,0,0,237.94,104.77Zm-1.34,2.9a2,2,0,0,1-.19.5c0,.09-.1.15-.14.16a4.64,4.64,0,0,1-.89.13c-.31,0-.73,0-1.3,0h-2.64a.3.3,0,0,1,0-.1,2.52,2.52,0,0,1,.69-1.21,5.26,5.26,0,0,1,1.35-1,2.23,2.23,0,0,1,2.81.16A1.43,1.43,0,0,1,236.6,107.67Z"/><path class="cls-1" d="M260.58,104.55a3,3,0,0,0-1.16,0l-.18,0-.39,0a5.39,5.39,0,0,1-.78,0,8.17,8.17,0,0,1-1.17-.07,8.16,8.16,0,0,0-1.07-.06,2,2,0,0,0-.53.09.64.64,0,0,0-.46.45.62.62,0,0,0,.28.7l.51.34a.66.66,0,0,1,.31.31,1,1,0,0,1,0,.71,4.53,4.53,0,0,1-.21.62,4.59,4.59,0,0,1-.3.59l-3.36,5.58-.8-5.83a5.93,5.93,0,0,1-.07-.59,1.11,1.11,0,0,1,0-.45,1.54,1.54,0,0,1,.31-.68,1.13,1.13,0,0,1,.53-.29,4.07,4.07,0,0,0,.65-.3.94.94,0,0,0,.51-.59.44.44,0,0,0-.29-.56,1.29,1.29,0,0,0-.51-.1c-.48,0-.83,0-1.1,0l-.53,0-.25,0a8,8,0,0,1-.95,0,5.88,5.88,0,0,1-.8,0h-.17l-.51,0a10.88,10.88,0,0,0-1.11,0,2.21,2.21,0,0,0-.47,0,.56.56,0,0,0-.5.42.57.57,0,0,0,.18.64,4.8,4.8,0,0,0,.47.31,1,1,0,0,1,.61.51,3.64,3.64,0,0,1,.31,1l1.37,9.6a2.41,2.41,0,0,1,0,.55,3.33,3.33,0,0,1-.52,1.58c-.48.75-.94,1.45-1.39,2.09s-.78,1.11-1.19,1.64-.72.93-1,1.24a1.54,1.54,0,0,1-.37.37,1.28,1.28,0,0,1-.39.12,2.2,2.2,0,0,1-.63-.11,2.91,2.91,0,0,0-.85-.13,1.44,1.44,0,0,0-1.17.59,3.13,3.13,0,0,0-.63,1.23,1.29,1.29,0,0,0,.4,1.42,2.05,2.05,0,0,0,1.35.47,3.43,3.43,0,0,0,1.64-.43,3.73,3.73,0,0,0,1.32-1.25c.48-.71,1-1.45,1.47-2.21s1-1.5,1.43-2.19l.92-1.4.25-.39c.34-.52.56-.88.67-1.07L257.64,108a6.67,6.67,0,0,1,1.17-1.36,3.41,3.41,0,0,1,1.16-.72,4.87,4.87,0,0,0,.56-.28.81.81,0,0,0,.42-.55.42.42,0,0,0,0-.33A.51.51,0,0,0,260.58,104.55Z"/><path class="cls-1" d="M274.81,104.77a4.55,4.55,0,0,0-2.35-.57,7.19,7.19,0,0,0-3.59,1,10.68,10.68,0,0,0-3.08,2.67,9.69,9.69,0,0,0-1.83,3.69,8.7,8.7,0,0,0-.19,3.91,4.65,4.65,0,0,0,1.53,2.7,4.51,4.51,0,0,0,3,1,6.5,6.5,0,0,0,2.17-.36,7.48,7.48,0,0,0,1.89-1,8.67,8.67,0,0,0,1.51-1.32,3.62,3.62,0,0,0,.81-1.36.61.61,0,0,0-.06-.51.42.42,0,0,0-.36-.15.55.55,0,0,0-.32.1,2.32,2.32,0,0,0-.25.22,7.83,7.83,0,0,1-1.67,1,4.49,4.49,0,0,1-1.75.36,3,3,0,0,1-2-.68,3.53,3.53,0,0,1-1.14-1.83,5,5,0,0,1,0-2.56,2,2,0,0,1,.37-.86.73.73,0,0,1,.54-.19h6.63a1.47,1.47,0,0,0,1.5-1.29,4.17,4.17,0,0,0,0-2.38A3.19,3.19,0,0,0,274.81,104.77Zm-2.57,3.69c-.3,0-.72,0-1.3,0h-2.63a.3.3,0,0,1,0-.1,2.41,2.41,0,0,1,.68-1.21,5.43,5.43,0,0,1,1.35-1,2.92,2.92,0,0,1,1.39-.41,1.79,1.79,0,0,1,1.42.57,1.41,1.41,0,0,1,.29,1.37,1.9,1.9,0,0,1-.18.5.33.33,0,0,1-.15.16A4.52,4.52,0,0,1,272.24,108.46Z"/><path class="cls-1" d="M290.64,94.79l-1,.36-.26.1c-.44.17-.93.35-1.5.52a12,12,0,0,1-1.67.44.73.73,0,0,0-.49.6.72.72,0,0,0,0,.55.44.44,0,0,0,.29.2.81.81,0,0,1,.71.64,3.37,3.37,0,0,1-.09,1.51L282.5,116.2a1,1,0,0,1-.51.74,8.18,8.18,0,0,1-1,.36l-.46.2-.13.06a.77.77,0,0,0-.45.53.44.44,0,0,0,.28.58,1.42,1.42,0,0,0,.5.08c.4,0,.76,0,1.1,0s.56-.07.85-.09.54,0,.94,0,.72,0,1,0l.84.06a10.69,10.69,0,0,0,1.07,0,2.13,2.13,0,0,0,.52-.08.63.63,0,0,0,.44-.45.55.55,0,0,0-.22-.63,2.17,2.17,0,0,0-.51-.27,4.47,4.47,0,0,1-.77-.37c-.13-.08-.16-.29-.08-.62L290.24,99c.29-1.15.54-2,.74-2.57s.34-1,.39-1.15a.55.55,0,0,0,0-.31.35.35,0,0,0-.35-.29A1.05,1.05,0,0,0,290.64,94.79Z"/><path class="cls-1" d="M305.83,116.43a1.65,1.65,0,0,1-1.1.35.46.46,0,0,1-.47-.31,1.58,1.58,0,0,1,0-1l2-7.53a3.13,3.13,0,0,0-.2-2.64,2.39,2.39,0,0,0-2.16-1,5.75,5.75,0,0,0-1.7.31,12,12,0,0,0-2,.86,14.44,14.44,0,0,0-2,1.27,6.85,6.85,0,0,0-1.35,1.22,2.94,2.94,0,0,0-.67,1.21.58.58,0,0,0,.07.51c.25.34.8.25,1.55,0A9.49,9.49,0,0,0,299,109c.41-.23.61-.43.66-.63a2.56,2.56,0,0,0,.07-.36c0-.15.06-.27.09-.38a1.77,1.77,0,0,1,.16-.46.71.71,0,0,1,.21-.27,4.09,4.09,0,0,1,.81-.39c.94-.32,1.58-.18,1.83.31a1.86,1.86,0,0,1,0,1.33l-.58,2a2.55,2.55,0,0,1-.33.8,2.68,2.68,0,0,1-.8.42l-3.45,1.36a7.3,7.3,0,0,0-2.21,1.24,3.69,3.69,0,0,0-1.11,1.88,2.42,2.42,0,0,0,.09,1.5,2.8,2.8,0,0,0,.84,1.23,2,2,0,0,0,1.35.51,5.43,5.43,0,0,0,2.12-.47,10.57,10.57,0,0,0,2.19-1.25,2.25,2.25,0,0,0,2.25,1.72,3.48,3.48,0,0,0,1.38-.34,6.57,6.57,0,0,0,1.44-.92,1.9,1.9,0,0,0,.74-1,.48.48,0,0,0-.1-.48A.56.56,0,0,0,305.83,116.43Zm-4.28-3.53a1,1,0,0,1-.09.32l-.53,1.9a3.09,3.09,0,0,1-.29.73,1.2,1.2,0,0,1-.3.36,2.39,2.39,0,0,1-.72.48,2.1,2.1,0,0,1-.86.16.88.88,0,0,1-.7-.34c-.19-.21-.21-.58-.08-1.1a2.4,2.4,0,0,1,.84-1.23,7.89,7.89,0,0,1,2.24-1.14l.37-.12Z"/><path class="cls-1" d="M323.62,104.89a2.81,2.81,0,0,0-1-.5,5.57,5.57,0,0,0-1.76-.23,6.61,6.61,0,0,0-2.7.55,6.17,6.17,0,0,0-2,1.49,5.2,5.2,0,0,0-1.13,2.17,3.7,3.7,0,0,0-.05,1.83,3.51,3.51,0,0,0,.83,1.47,12.65,12.65,0,0,0,1.48,1.28,7.07,7.07,0,0,1,1.46,1.36,1.52,1.52,0,0,1,.19,1.32A2.63,2.63,0,0,1,318,117a2.21,2.21,0,0,1-1.48.56,1.84,1.84,0,0,1-1.51-.72,3.73,3.73,0,0,1-.7-2.2.48.48,0,0,0-.23-.43.87.87,0,0,0-.44-.11c-.58,0-.75.32-.79.51a13.55,13.55,0,0,0-.33,1.72,3.75,3.75,0,0,0,0,1.46l.05.1a3.6,3.6,0,0,0,1.46.93,5.72,5.72,0,0,0,1.94.32,6.74,6.74,0,0,0,4-1.22,5.58,5.58,0,0,0,2.2-3.23,3.38,3.38,0,0,0-.29-2.8,8.43,8.43,0,0,0-2.38-2.15,4.68,4.68,0,0,1-1.3-1.19,1.39,1.39,0,0,1-.16-1.16,2,2,0,0,1,.86-1.24,2.42,2.42,0,0,1,1.37-.44,1.42,1.42,0,0,1,1.18.5,3.24,3.24,0,0,1,.55,1.66.55.55,0,0,0,.32.43,1,1,0,0,0,.5.14c.52,0,.67-.28.71-.44a8.48,8.48,0,0,0,.24-1.72,2.89,2.89,0,0,0-.15-1.3Z"/><path class="cls-1" d="M341.2,104.2a5.91,5.91,0,0,0-2.11.38,10,10,0,0,0-1.89.88c-.42.25-.81.48-1.14.69h0a3.37,3.37,0,0,1,.12-.67L337.8,99c.25-1,.43-1.63.59-2.09s.3-.85.4-1.09l0-.07a3.19,3.19,0,0,0,.17-.47.56.56,0,0,0,0-.4.43.43,0,0,0-.38-.2,1.29,1.29,0,0,0-.39.09c-.38.15-.83.32-1.37.51s-1.06.35-1.6.51l-1.41.4a.8.8,0,0,0-.52.6.75.75,0,0,0,0,.58.49.49,0,0,0,.32.22c.55.08.66.36.68.6a4.24,4.24,0,0,1-.13,1.5l-4.12,16.42a1.09,1.09,0,0,1-.53.78,5.27,5.27,0,0,1-1,.38c-.62.22-1,.46-1,.77a.5.5,0,0,0,.08.46.85.85,0,0,0,.69.23c.4,0,.77,0,1.11,0h.09l.76-.08c.24,0,.54,0,.93,0s.7,0,.92,0l.66.08h.08c.3,0,.65,0,1.06,0,.68,0,.9-.31,1-.58a.53.53,0,0,0-.16-.58,1.57,1.57,0,0,0-.54-.29,2.32,2.32,0,0,1-.62-.37c-.12-.11-.15-.35-.08-.69l1.75-7a4.23,4.23,0,0,1,.43-1.18,2.32,2.32,0,0,1,.67-.65,3.41,3.41,0,0,1,1.27-.52,2.73,2.73,0,0,1,2.28.15,2.1,2.1,0,0,1,.72,2.23L338.91,116a1.37,1.37,0,0,1-.54.86,3.12,3.12,0,0,1-.89.41c-.25.09-.44.17-.59.24a.71.71,0,0,0-.41.52.47.47,0,0,0,.08.45.83.83,0,0,0,.72.24c.44,0,.82,0,1.11,0l.1,0,.62-.07c.21,0,.49,0,.93,0s.72,0,.93,0l.71.09c.28,0,.65,0,1.08,0,.7,0,.93-.31,1-.58a.53.53,0,0,0-.2-.6,3.22,3.22,0,0,0-.5-.27,2.18,2.18,0,0,1-.69-.41c-.06,0-.22-.19-.09-.71l1.78-7.1a4.59,4.59,0,0,0-.26-3.51A2.81,2.81,0,0,0,341.2,104.2Z"/><path class="cls-1" d="M376.46,104.46a4.9,4.9,0,0,0-1.12.16l-1.3.28a6,6,0,0,1-1.18.13c-.21,0-.48,0-.82,0l-1-.1c-.27,0-.52,0-.68,0a2.59,2.59,0,0,0-.57.07.71.71,0,0,0-.57.54.45.45,0,0,0,.19.48l.28.21.06,0a.68.68,0,0,1,.41.3.51.51,0,0,1,.08.42,3.38,3.38,0,0,1-.68,1c-.45.55-1,1.12-1.55,1.7a22.45,22.45,0,0,1-1.84,1.69l-.42.36-.16-.32a15.9,15.9,0,0,0-1.34-2.34c-.47-.66-1-1.39-1.52-2.17l-.19-.32.32-.11a10,10,0,0,0,2.93-1.54,4.07,4.07,0,0,0,1.53-2.39,3.53,3.53,0,0,0,0-2,3.08,3.08,0,0,0-1.21-1.6,4.09,4.09,0,0,0-2.38-.63,7.44,7.44,0,0,0-2.64.5,6.5,6.5,0,0,0-2.23,1.44,4.55,4.55,0,0,0-1.27,2.17,3.6,3.6,0,0,0,0,1.84,5,5,0,0,0,.62,1.37c.23.33.42.65.56.89l.14.24-.48.2a16,16,0,0,0-4.57,2.92,8.75,8.75,0,0,0-2.56,4.3,4,4,0,0,0,.14,2.66,3.6,3.6,0,0,0,1.72,1.79,6.09,6.09,0,0,0,2.78.6,7,7,0,0,0,2.73-.54,11.64,11.64,0,0,0,2.47-1.51c.77-.6,1.58-1.27,2.46-2l.16.4a15.26,15.26,0,0,0,1,2,3.44,3.44,0,0,0,1.34,1.26,4.67,4.67,0,0,0,2.08.4,6.18,6.18,0,0,0,2.32-.48,10,10,0,0,0,2-1.09c.81-.59,1-.89,1-1.06a.6.6,0,0,0-.09-.59,1,1,0,0,0-.89-.06,1.84,1.84,0,0,0-.34.14,6.41,6.41,0,0,1-1.3.4,7.52,7.52,0,0,1-1.24.11,2.08,2.08,0,0,1-1.7-.81,11.06,11.06,0,0,1-1.37-2.28l-.27-.64.6-.48.08-.07c.45-.35,1-.79,1.57-1.3l.49-.43,1.34-1.12.78-.66L372,108a11,11,0,0,1,1-.76,9.21,9.21,0,0,1,1.26-.8,4.27,4.27,0,0,1,1.51-.45,1.79,1.79,0,0,0,.79-.31,1.12,1.12,0,0,0,.49-.61.41.41,0,0,0-.17-.44A.61.61,0,0,0,376.46,104.46ZM363,113.88l-.19.16a10.34,10.34,0,0,1-2.49,1.63,6,6,0,0,1-2.43.52,2.67,2.67,0,0,1-2.33-1,3,3,0,0,1-.34-2.57,9.85,9.85,0,0,1,.63-1.77,5.37,5.37,0,0,1,1.16-1.61,5.68,5.68,0,0,1,2-1.23l.52-.22.17.29c.69,1.12,1.25,2,1.76,2.77a16.77,16.77,0,0,1,1.36,2.56Zm-2.23-11.12a5.36,5.36,0,0,1,.19-1.27,2.31,2.31,0,0,1,.9-1.29,2.47,2.47,0,0,1,1.49-.53,1,1,0,0,1,1.05.72,3.42,3.42,0,0,1,0,1.85,6,6,0,0,1-.79,1.79,3.09,3.09,0,0,1-1.35,1.22l-.26.14-.28-.42a8.94,8.94,0,0,1-.7-1.21A2.36,2.36,0,0,1,360.73,102.76Z"/><path class="cls-1" d="M393.5,104.2a7.56,7.56,0,0,0-2.94.58,11.27,11.27,0,0,0-2.33,1.35c.08-.29.19-.61.32-1s.26-.75.3-.92a.57.57,0,0,0,0-.34c-.08-.25-.39-.33-.71-.16l-.26.14a14.6,14.6,0,0,1-1.89,1,15.93,15.93,0,0,1-2.15.71c-.21,0-.49.15-.61.64a.64.64,0,0,0,0,.5.53.53,0,0,0,.33.26c.49.13.56.39.57.57a4.83,4.83,0,0,1-.17,1.34l-1.84,7.33a1,1,0,0,1-.51.74,4.37,4.37,0,0,1-1,.35,3.5,3.5,0,0,0-.63.24.8.8,0,0,0-.43.53.51.51,0,0,0,.22.56,1,1,0,0,0,.55.13c.4,0,.78,0,1.13,0h.09l.79-.08c.25,0,.55,0,.95,0s.7,0,.92,0l.65.07.12,0c.32,0,.68,0,1.09,0a1.22,1.22,0,0,0,.58-.12.71.71,0,0,0,.35-.46c.07-.25,0-.62-.71-.88a3.6,3.6,0,0,1-.73-.32q-.21-.14-.09-.63l2-8a1.11,1.11,0,0,1,.14-.3,1.18,1.18,0,0,1,.2-.27,7.75,7.75,0,0,1,1.56-.81,4.92,4.92,0,0,1,1.73-.31,1.76,1.76,0,0,1,1.49.7,2.42,2.42,0,0,1,.14,2l-1.73,6.89a1,1,0,0,1-.5.71,8.18,8.18,0,0,1-1,.36,4.42,4.42,0,0,0-.56.25.81.81,0,0,0-.45.54.44.44,0,0,0,.31.58,1.25,1.25,0,0,0,.44.08c.4,0,.77,0,1.11,0h.06l.81-.08c.25,0,.55,0,.94,0s.72,0,1,0l.8.09c.32,0,.68,0,1.08,0a1.34,1.34,0,0,0,.48-.08.61.61,0,0,0,.46-.47.55.55,0,0,0-.22-.63,2.82,2.82,0,0,0-.48-.27,7.91,7.91,0,0,1-.79-.35c-.06,0-.22-.12-.1-.61l1.81-7.19a4.73,4.73,0,0,0-.24-3.54A2.72,2.72,0,0,0,393.5,104.2Z"/><path class="cls-1" d="M414.47,116.43a1.65,1.65,0,0,1-1.1.35.46.46,0,0,1-.47-.31,1.58,1.58,0,0,1,0-1l2.05-7.53a3.1,3.1,0,0,0-.2-2.64,2.39,2.39,0,0,0-2.16-1,5.74,5.74,0,0,0-1.69.31,12.61,12.61,0,0,0-2.05.86,14.44,14.44,0,0,0-2,1.27,7.57,7.57,0,0,0-1.36,1.22,3.13,3.13,0,0,0-.65,1.21.55.55,0,0,0,.06.51.56.56,0,0,0,.47.22,3.38,3.38,0,0,0,1.08-.25,9.49,9.49,0,0,0,1.16-.53c.41-.24.62-.43.67-.63s0-.22.07-.36.06-.27.08-.38a3,3,0,0,1,.16-.46.63.63,0,0,1,.22-.26,3.5,3.5,0,0,1,.8-.4c.92-.32,1.58-.19,1.83.31a1.85,1.85,0,0,1,0,1.33l-.58,2a2.55,2.55,0,0,1-.33.8,2.39,2.39,0,0,1-.8.42l-3.45,1.36a7.3,7.3,0,0,0-2.21,1.24,3.66,3.66,0,0,0-1.11,1.88,2.57,2.57,0,0,0,.09,1.5,2.82,2.82,0,0,0,.84,1.23,2,2,0,0,0,1.35.51,5.39,5.39,0,0,0,2.12-.47,10.57,10.57,0,0,0,2.19-1.25,2.26,2.26,0,0,0,2.25,1.72,3.36,3.36,0,0,0,1.38-.34,6.34,6.34,0,0,0,1.44-.92,1.88,1.88,0,0,0,.75-1,.53.53,0,0,0-.1-.48C415.2,116.31,414.93,116.08,414.47,116.43Zm-4.28-3.53a1.14,1.14,0,0,1-.08.32l-.54,1.9a3.09,3.09,0,0,1-.29.73,1.18,1.18,0,0,1-.29.36,2.66,2.66,0,0,1-.72.48,2.18,2.18,0,0,1-.87.16.88.88,0,0,1-.7-.34,1.23,1.23,0,0,1-.08-1.09,2.38,2.38,0,0,1,.84-1.24A7.89,7.89,0,0,1,409.7,113l.36-.12Z"/><path class="cls-1" d="M429.36,97.23a2.58,2.58,0,0,0-1.66.64,2.88,2.88,0,0,0-1,1.58,1.86,1.86,0,0,0,.23,1.6,1.61,1.61,0,0,0,1.41.68,2.64,2.64,0,0,0,1.7-.63,2.78,2.78,0,0,0,1-1.54,1.86,1.86,0,0,0-.24-1.64A1.69,1.69,0,0,0,429.36,97.23Z"/><path class="cls-1" d="M429.38,103.56a1.41,1.41,0,0,0-.69.27c-.39.21-1,.51-1.72.87a12.5,12.5,0,0,1-2.57.86c-.17,0-.48.12-.6.61a.67.67,0,0,0,0,.49.45.45,0,0,0,.38.3c.55.1.69.38.74.58a3.05,3.05,0,0,1-.08,1.5l-1.8,7.19a1.05,1.05,0,0,1-.46.69,5.24,5.24,0,0,1-1.14.41,2.46,2.46,0,0,0-.55.2.75.75,0,0,0-.43.53.48.48,0,0,0,.2.56.93.93,0,0,0,.53.13c.4,0,.77,0,1.12,0s.59-.07.89-.09.59,0,1,0,.73,0,1,0l.8.08h.08c.35,0,.72,0,1.1,0,.64,0,.85-.31.91-.58a.53.53,0,0,0-.21-.62,1.65,1.65,0,0,0-.48-.22,2.17,2.17,0,0,1-.88-.42c-.05,0-.19-.16-.08-.57l1.9-7.59q.21-.81.51-1.71l0-.1c.2-.58.38-1.13.57-1.64s.31-.92.37-1.18a.43.43,0,0,0-.06-.41A.41.41,0,0,0,429.38,103.56Z"/><path class="cls-1" d="M444.89,94.7a1.13,1.13,0,0,0-.38.09c-.35.11-.73.25-1.16.41l-.12,0c-.44.17-.93.34-1.51.52a11.63,11.63,0,0,1-1.67.44.76.76,0,0,0-.49.6c-.14.57.17.71.32.75a.84.84,0,0,1,.72.64,3.39,3.39,0,0,1-.1,1.51l-4.14,16.48a1,1,0,0,1-.51.75c-.31.13-.63.25-1,.36l-.42.18-.17.08a.76.76,0,0,0-.44.53.43.43,0,0,0,.28.58,1.33,1.33,0,0,0,.49.08c.4,0,.77,0,1.1,0s.56-.07.85-.09.55,0,.94,0,.73,0,1,0l.32,0,.52,0c.31,0,.66,0,1.07,0a2.06,2.06,0,0,0,.52-.08.61.61,0,0,0,.44-.45.56.56,0,0,0-.21-.63,2.07,2.07,0,0,0-.52-.27,4.07,4.07,0,0,1-.76-.37c-.14-.08-.17-.29-.09-.62L444.1,99c.3-1.15.55-2,.74-2.57s.35-1,.4-1.16a.76.76,0,0,0,0-.3A.36.36,0,0,0,444.89,94.7Z"/></svg>